<?xml version="1.0" encoding="utf-8"?>
<!-- Generator: Adobe Illustrator 23.0.3, SVG Export Plug-In . SVG Version: 6.00 Build 0)  -->
<svg version="1.1" id="Calque_1" xmlns="http://www.w3.org/2000/svg" xmlns:xlink="http://www.w3.org/1999/xlink" x="0px" y="0px"
	 viewBox="0 0 175.9 102.6" style="enable-background:new 0 0 175.9 102.6;" xml:space="preserve">
<style type="text/css">
	.st0{fill:#FFFFFF;}
</style>
<path class="st0" d="M169.7,34.8c-4.3,2-6.5,2.9-8.3,3.1c-2.5,0.4-4.4,1.1-5.8,0.4c-0.2-7.2-6.9-8.4-11.8-8.4
	c-1.8,0-3.3,0.1-4.2,0.2c-4.8,0.3-8.8,1.6-9.5,5.6c-5,2.7-8.1,3.1-12.1,2.7c-0.2-1.6-0.8-2.9-1.6-4c-2.7-1.8-5.3-1.3-7.6-0.7
	c-2.4,1.4-3.8,3.6-3.7,6.2c0.1,2.6,2.5,6.1,5.6,6.2c-0.1,8.9-0.8,18.4-1.4,20c-0.5,1.6-2.5,2.6-4.3,2.6c-2,0-3.8-1.2-4-3.9
	c-0.3-4.9-0.4-7.6-0.5-10.2c-0.1-2.6-0.6-13.5-0.5-18.9c4-5.5,5.6-7.9,8.1-12.4c2.6-4.7,4.1-9.4,2.7-16c-1.8-4.5-5.3-5.7-8.4-5.7
	c-2,0-3.8,0.5-4.9,0.9c-3.4,1.2-4.9,3.7-5.5,6.4c-0.8,3.2-0.5,6.8-0.8,8.8c0.3,8,0.5,13.7,0.6,18.5c-2,0.8-3.4,1.3-4.5,1.4
	c-2.5,0.4-4.4,1.1-5.8,0.4c-0.2-7.2-6.9-8.4-11.8-8.4c-1.8,0-3.3,0.1-4.2,0.2c-5.1,0.3-9.3,1.8-9.6,6.3c-0.4,5.6-0.7,11-0.9,16.7
	c-0.1,1.5-0.1,3.1-0.2,4.9c-5.8,8.2-11.6,12.8-11.3,7.5c-0.2-5-0.2-12.2-0.2-16.9c0-8.1,0.5-21.4-0.8-27.1c-1.7-4.7-5.2-5.8-8.7-5.8
	c-1.1,0-2.4,0.1-3.4,0.3c-4.5,1.2-7.8,4.4-9.7,7.7c-2.4-5.4-5.3-6.3-6.3-6.7c-1.9-0.7-4.1-0.8-7.6-0.8c-1.5,0-3,0-4.6,0.1
	C2,16.9,2,17.9,2,18.9c0,1.7,0.1,3.4,0.2,4.5c5.2,0.1,7.8,0.5,9,1.6c1.4,1.2,2,4.4,2.1,6.3c0.4,5.8-0.2,14.9-0.1,22.5
	c0,3.9-0.2,17.8,0,20.6c2.2,0.3,6.5,0.4,8.7-0.1c0-8.8,0.2-16.2,0.1-25.1c0-2.4,0-13.4,0.1-15.7c1.7-3.1,3.6-6.6,7.1-7.7
	c1.4-0.1,3-0.9,4.5,2c0.8,3.1,0.8,18.3,0.7,20.9c-0.2,6.4-0.2,11.3,0.2,18.1c0.1,1.9,0.2,5.3,0.8,6.4c1.3,2,3.5,2.4,6.8,2.4
	c5.4,0,9.1-3.1,12.6-7.7c0,0.9,0.1,1.6,0.2,2.2c0.7,4.1,7.5,5.6,11.9,5.6c6,0,10-1.5,11.9-5c1-1.8,1.5-6.7,1.9-13.6
	c0.2-2,0.5-5.3,0.6-8.8c0.1-1.2,0-2.5,0.1-3.6c4,0.2,7.1-0.7,8.3-1c0.7-0.2,1.5-0.5,2.2-0.8c0.1,3.4,0.2,6.6,0.4,10.4
	c0.1,2.3,0.1,4.5,0.1,6.6c0,4,0,7.4,0.8,10c1.7,5.1,6.9,5.9,10.4,5.9c1.1,0,2-0.1,2.5-0.1c2.9-0.2,7.7-0.1,10.4-2.9
	c1.9-1.9,2.1-20.8,1.5-26.9c1.2,0.1,5.1-0.7,7.5-1.4c1.3-0.4,2.5-0.9,3.8-1.7c-0.2,3.3-0.4,6.7-0.5,10.2c-0.2,3.2-0.3,7.6-0.3,11.3
	c0,2.5,0.1,4.7,0.3,6c0.7,4.1,7.5,5.6,11.9,5.6c6,0,10-1.5,11.9-5c1-1.8,1.5-6.7,1.9-13.6c0.2-2,0.5-5.3,0.6-8.8
	c0.1-1.2,0-2.5,0.1-3.6c4,0.2,7.1-0.7,8.3-1c2.9-0.9,5.9-2.2,7.4-4C171,38.4,170.4,36.8,169.7,34.8z M72.2,66.8
	c-0.8,3-7.6,2.6-8.6,0.7c-0.8-1.5-0.2-19.1,0.1-27.3c0.1-2.6,2-4.3,6.5-4c-1.1,1.2-1.7,3.5-1,5.3s1.7,2.7,4.3,3.7
	C73.5,55.9,72.8,64.5,72.2,66.8z M99.1,17.9c0-0.8-0.2-2.7,0-5.6c0.3-5.9,6.8-5.7,5.1,2.3c-0.4,1.8-1.6,6.5-4.9,11.9
	C99,21.5,99.1,19.5,99.1,17.9z M146.2,66.8c-0.8,3-7.6,2.6-8.6,0.7c-0.8-1.5-0.2-19.1,0.1-27.3c0.1-2.6,2-4.3,6.5-4
	c-1.1,1.2-1.7,3.5-1,5.3s1.7,2.7,4.3,3.7C147.4,55.9,146.7,64.5,146.2,66.8z"/>
<g>
	<path class="st0" d="M18.8,86.8c0-2.2,0-4.5,0.1-5.7l0,0c-0.3,1.9-1.2,7.2-1.9,10.7h-1.1c-0.5-3-1.5-8.6-1.8-10.7l0,0
		c0,1.4,0.1,4,0.1,6v4.7h-1.1V80.1h1.7c0.7,3.6,1.5,8.1,1.7,9.6l0,0c0.2-1.4,1.1-6.2,1.8-9.6h1.6v11.7h-1.1V86.8z"/>
	<path class="st0" d="M40.4,82.9v6c0,2-0.8,3.1-2.5,3.1c-1.8,0-2.4-1.2-2.4-3v-6c0-1.9,0.9-3,2.5-3C39.7,79.9,40.4,81.1,40.4,82.9z
		 M36.6,82.9V89c0,1.4,0.5,1.9,1.3,1.9c0.9,0,1.3-0.5,1.3-2v-6.1c0-1.3-0.5-1.9-1.3-1.9C37,80.9,36.6,81.5,36.6,82.9z"/>
	<path class="st0" d="M56.4,80.1l0.8,5.4c0.3,1.7,0.6,3.7,0.7,4.9l0,0c0.1-1.1,0.5-3.2,0.7-4.9l0.8-5.4h1.2l-2.1,11.7h-1.4L55,80.1
		H56.4z"/>
	<path class="st0" d="M77,80.1v11.7h-1.1V80.1H77z"/>
	<path class="st0" d="M96.6,86H94v4.7h3l-0.2,1h-4V80.1h3.9v1h-2.8V85h2.6L96.6,86L96.6,86z"/>
	<path class="st0" d="M112.8,88.5v0.7c0,1.2,0.4,1.8,1.3,1.8s1.2-0.6,1.2-2s-0.3-2-1.5-2.9c-1.3-1-1.9-1.6-1.9-3.3
		c0-1.5,0.4-2.9,2.2-2.9c1.7,0,2.1,1.1,2.1,2.6V83h-1.1v-0.5c0-1-0.2-1.7-1.1-1.7c-0.8,0-1.1,0.8-1.1,1.7c0,1.2,0.2,1.6,1.3,2.4
		c1.6,1.2,2.1,1.9,2.1,3.8c0,1.7-0.4,3.1-2.4,3.1c-1.8,0-2.4-1.2-2.4-2.8v-0.7h1.3V88.5z"/>
</g>
</svg>
